<svg xmlns="http://www.w3.org/2000/svg" data-name="Layer 4" viewBox="0 0 32 32"><circle cx="16" cy="18" r="12" fill="#69ff9b"/><path fill="#2d354f" d="M18.7,5.286A2.965,2.965,0,0,0,19,4a3,3,0,0,0-6,0,2.965,2.965,0,0,0,.3,1.286A13,13,0,1,0,18.7,5.286ZM15,4a1,1,0,1,1,1,1A1,1,0,0,1,15,4Zm1,25A11,11,0,1,1,27,18,11.012,11.012,0,0,1,16,29Z"/><path fill="#2d354f" d="M17.925,18.511A1.944,1.944,0,0,0,17,16.278V10a1,1,0,0,0-2,0v6.278a1.988,1.988,0,0,0,1.511,3.647l2.782,2.782a1,1,0,0,0,1.414-1.414Z"/></svg>